# xmcd
#
# Track frame offsets:
#	182
#	36562
#	53950
#	67180
#	82087
#	98920
#	117550
#	125017
#	135957
#	152545
#	176890
#	186707
#	206507
#
# Disc length: 2877 seconds
#
# Revision: 0
# Processed by: cddbd v1.4PL0 Copyright (c) Steve Scherf et al.
# Submitted via: dBpowerAMP V4.0
#
DISCID=cb0b3b0d
DTITLE=Bukka White - 1963 isn't 1962
DYEAR=1994
DGENRE=Blues
TTITLE0=Streamline Special
TTITLE1=Drunken Leroy Blues
TTITLE2=Fixin' To Die
TTITLE3=Midnight Twister
TTITLE4=Aberdeen Blues
TTITLE5=Vaseline Head Woman
TTITLE6=Jump
TTITLE7=Jack O'Diamonds
TTITLE8=Chi Chi Boogie
TTITLE9=1963 Isn't 1962 Blues
TTITLE10=Boogie 'Til DuBuque
TTITLE11=Driftin' and Driftin'
TTITLE12=Corinna, Corinna
EXTD=
EXTT0=
EXTT1=
EXTT2=
EXTT3=
EXTT4=
EXTT5=
EXTT6=
EXTT7=
EXTT8=
EXTT9=
EXTT10=
EXTT11=
EXTT12=
PLAYORDER=
